<?xml version="1.0" encoding="UTF-8" standalone="no"?>
<svg
   xmlns:dc="http://purl.org/dc/elements/1.1/"
   xmlns:cc="http://creativecommons.org/ns#"
   xmlns:rdf="http://www.w3.org/1999/02/22-rdf-syntax-ns#"
   xmlns:svg="http://www.w3.org/2000/svg"
   xmlns="http://www.w3.org/2000/svg"
   xmlns:sodipodi="http://sodipodi.sourceforge.net/DTD/sodipodi-0.dtd"
   xmlns:inkscape="http://www.inkscape.org/namespaces/inkscape"
   viewBox="0 0 512 512"
   version="1.1"
   id="svg865"
   sodipodi:docname="avatar2.svg"
   inkscape:version="0.92.4 5da689c313, 2019-01-14">
  <metadata
     id="metadata871">
    <rdf:RDF>
      <cc:Work
         rdf:about="">
        <dc:format>image/svg+xml</dc:format>
        <dc:type
           rdf:resource="http://purl.org/dc/dcmitype/StillImage" />
      </cc:Work>
    </rdf:RDF>
  </metadata>
  <defs
     id="defs869" />
  <sodipodi:namedview
     pagecolor="#ffffff"
     bordercolor="#666666"
     borderopacity="1"
     objecttolerance="10"
     gridtolerance="10"
     guidetolerance="10"
     inkscape:pageopacity="0"
     inkscape:pageshadow="2"
     inkscape:window-width="1366"
     inkscape:window-height="715"
     id="namedview867"
     showgrid="false"
     inkscape:zoom="1.0078125"
     inkscape:cx="256"
     inkscape:cy="256"
     inkscape:window-x="0"
     inkscape:window-y="28"
     inkscape:window-maximized="1"
     inkscape:current-layer="svg865" />
  <path
     d="M256 48C141.6 48 48 141.6 48 256s93.6 208 208 208 208-93.6 208-208S370.4 48 256 48zm0 62.4c34.3 0 62.4 28.1 62.4 62.4s-28.1 62.4-62.4 62.4-62.4-28.1-62.4-62.4 28.1-62.4 62.4-62.4zm0 300.4c-52 0-97.8-27-124.8-66.6 1-41.6 83.2-64.5 124.8-64.5s123.8 22.9 124.8 64.5c-27 39.5-72.8 66.6-124.8 66.6z"
     id="path863"
     style="fill:#ffffff" />
</svg>
